<?xml version="1.0" encoding="utf-8"?>
<!-- Generator: Adobe Illustrator 17.0.0, SVG Export Plug-In . SVG Version: 6.00 Build 0)  -->
<!DOCTYPE svg PUBLIC "-//W3C//DTD SVG 1.1//EN" "http://www.w3.org/Graphics/SVG/1.1/DTD/svg11.dtd">
<svg version="1.1" id="圖層_1" xmlns="http://www.w3.org/2000/svg" xmlns:xlink="http://www.w3.org/1999/xlink" x="0px" y="0px"
	 width="52px" height="52px" viewBox="0 0 52 52" enable-background="new 0 0 52 52" xml:space="preserve">
<g>
	<path fill="#FFFFFF" d="M50.57,25.907c-0.037,13.764-11.259,24.54-24.64,24.434C12.57,50.235,1.572,39.318,1.684,25.691
		C1.795,12.214,12.82,1.342,26.35,1.463C39.659,1.582,50.547,12.379,50.57,25.907z M22.14,22.457
		c-0.035-0.101-0.059-0.182-0.09-0.26c-0.348-0.888-0.696-1.775-1.044-2.663c-1.016-2.589-2.033-5.178-3.049-7.767
		c-0.092-0.235-0.093-0.235-0.338-0.235c-0.681,0-1.363,0.003-2.044-0.003c-0.143-0.001-0.235,0.035-0.269,0.181
		c-0.008,0.035-0.025,0.067-0.038,0.1c-0.974,2.498-1.947,4.996-2.921,7.494c-0.377,0.968-0.755,1.937-1.132,2.906
		c-0.029,0.076-0.048,0.156-0.076,0.252c0.097,0.006,0.161,0.013,0.224,0.013c0.61,0.001,1.219,0.001,1.829,0
		c0.214,0,0.216-0.001,0.293-0.204c0.264-0.689,0.527-1.38,0.792-2.069c0.094-0.244,0.069-0.223,0.321-0.223
		c1.312-0.001,2.625,0,3.937,0c0.071,0,0.142,0,0.223,0c0.034,0.081,0.067,0.152,0.094,0.224c0.26,0.691,0.519,1.383,0.779,2.073
		c0.074,0.196,0.076,0.198,0.275,0.198c0.674,0.001,1.348,0.001,2.022,0C21.99,22.476,22.052,22.465,22.14,22.457z M21.265,38.097
		c-0.044-0.124-0.074-0.217-0.11-0.309c-1.016-2.59-2.032-5.18-3.049-7.769c-0.343-0.874-0.687-1.748-1.029-2.623
		c-0.043-0.111-0.084-0.202-0.236-0.2c-0.724,0.007-1.449,0.004-2.173,0.002c-0.11,0-0.175,0.044-0.206,0.147
		c-0.013,0.041-0.031,0.08-0.047,0.12c-0.857,2.198-1.713,4.396-2.57,6.594c-0.49,1.256-0.979,2.512-1.468,3.768
		c-0.032,0.082-0.052,0.168-0.083,0.271c0.105,0.005,0.176,0.011,0.247,0.011c0.588,0.001,1.176,0.001,1.764,0
		c0.237,0,0.238-0.001,0.323-0.224c0.264-0.69,0.527-1.38,0.792-2.069c0.077-0.202,0.08-0.203,0.294-0.203
		c1.327-0.001,2.653-0.001,3.98,0c0.216,0,0.218,0.002,0.294,0.204c0.258,0.684,0.514,1.369,0.772,2.054
		c0.089,0.238,0.09,0.239,0.335,0.239c0.638,0.001,1.276,0.001,1.915,0C21.081,38.108,21.151,38.102,21.265,38.097z M32.23,11.546
		c0,0.119,0,0.218,0,0.316c0,2.518,0,5.036,0,7.553c0,0.925-0.001,1.851,0.001,2.776c0,0.089,0.014,0.178,0.021,0.261
		c0.354,0.053,6.296,0.033,6.446-0.018c0.05-0.297,0.032-1.538-0.032-1.702c-0.085,0-0.178,0-0.27,0c-1.219,0-2.439,0-3.658-0.001
		c-0.091,0-0.181-0.011-0.267-0.016c-0.051-0.309-0.034-2.849,0.023-3.018c0.415,0,0.838,0,1.26,0c0.43,0,0.861,0.003,1.291-0.001
		c0.42-0.004,0.841,0.019,1.255-0.015c0.054-0.264,0.042-1.553-0.019-1.729c-0.414,0-0.836,0-1.258,0
		c-0.43,0-0.861,0.002-1.291-0.001c-0.421-0.003-0.842,0.014-1.257-0.011c-0.046-0.251-0.038-2.475,0.014-2.666
		c1.386,0,2.781,0,4.166,0c0.061-0.228,0.058-1.539,0-1.729C36.531,11.546,34.404,11.546,32.23,11.546z M30.492,14.458
		c-0.012-0.018-0.024-0.037-0.037-0.055c-0.071,0-0.141,0-0.212,0c-0.581,0-1.162,0.006-1.743-0.004
		c-0.166-0.003-0.258,0.052-0.341,0.196c-0.423,0.733-0.856,1.46-1.286,2.188c-0.038,0.064-0.081,0.126-0.134,0.209
		c-0.057-0.09-0.097-0.148-0.133-0.209c-0.444-0.737-0.889-1.474-1.329-2.213c-0.063-0.106-0.13-0.172-0.268-0.17
		c-0.717,0.006-1.434,0.002-2.152,0.004c-0.045,0-0.089,0.018-0.15,0.031c0.038,0.069,0.062,0.12,0.092,0.167
		c0.264,0.41,0.53,0.819,0.795,1.228c0.483,0.746,0.963,1.495,1.453,2.237c0.084,0.128,0.091,0.224-0.002,0.345
		c-0.1,0.131-0.183,0.274-0.273,0.412c-0.743,1.133-1.487,2.267-2.229,3.401c-0.044,0.068-0.078,0.142-0.137,0.251
		c0.125,0,0.202,0,0.279,0c0.588,0,1.176-0.008,1.764,0.004c0.188,0.004,0.297-0.053,0.395-0.218
		c0.501-0.845,1.014-1.683,1.524-2.523c0.043-0.071,0.09-0.141,0.153-0.239c0.062,0.098,0.109,0.167,0.152,0.238
		c0.513,0.855,1.027,1.709,1.535,2.566c0.069,0.117,0.144,0.175,0.288,0.174c0.717-0.007,1.434-0.003,2.152-0.004
		c0.047,0,0.093-0.013,0.181-0.025c-0.91-1.424-1.816-2.813-2.708-4.21C28.915,16.965,29.712,15.717,30.492,14.458z M39.429,31.734
		c0.056-0.544,0.117-1.052,0.133-1.559c-0.055-0.021-0.08-0.034-0.108-0.04c-0.848-0.206-1.707-0.316-2.581-0.255
		c-0.542,0.038-1.063,0.168-1.541,0.434c-0.572,0.318-0.966,0.78-1.13,1.424c-0.088,0.346-0.092,0.698-0.046,1.048
		c0.063,0.486,0.266,0.905,0.65,1.225c0.251,0.209,0.537,0.359,0.844,0.464c0.332,0.113,0.673,0.203,1.004,0.321
		c0.249,0.088,0.502,0.181,0.729,0.312c0.534,0.308,0.465,1.032,0.109,1.306c-0.139,0.107-0.301,0.196-0.466,0.256
		c-0.344,0.125-0.705,0.115-1.064,0.074c-0.496-0.057-0.967-0.205-1.422-0.408c-0.061-0.027-0.125-0.046-0.214-0.077
		c-0.037,0.551-0.071,1.065-0.106,1.579c-0.009,0.127,0.079,0.154,0.174,0.177c0.932,0.224,1.871,0.373,2.834,0.259
		c0.532-0.063,1.042-0.201,1.512-0.466c0.681-0.385,1.093-0.96,1.201-1.738c0.026-0.183,0.024-0.373,0.018-0.558
		c-0.027-0.774-0.357-1.375-1.027-1.781c-0.328-0.199-0.685-0.327-1.047-0.446c-0.307-0.101-0.617-0.191-0.918-0.308
		c-0.158-0.061-0.305-0.157-0.443-0.258c-0.141-0.103-0.194-0.258-0.194-0.435c0-0.329,0.152-0.561,0.438-0.709
		c0.289-0.15,0.603-0.181,0.921-0.171c0.504,0.015,0.999,0.095,1.478,0.258C39.242,31.684,39.317,31.702,39.429,31.734z
		 M33.227,30.056c-0.642-0.012-1.241,0.003-1.854-0.01c-0.007-0.115-0.016-0.2-0.016-0.284c-0.001-0.574,0-1.148-0.001-1.722
		c0-0.076-0.008-0.152-0.013-0.233c-0.052,0.003-0.082-0.001-0.108,0.008c-0.608,0.194-1.215,0.392-1.824,0.583
		c-0.123,0.039-0.145,0.117-0.144,0.228c0.003,0.387,0.001,0.775,0,1.162c0,0.077-0.009,0.154-0.015,0.248
		c-0.093,0.006-0.17,0.014-0.246,0.014c-0.344,0.001-0.689,0-1.033,0.002c-0.076,0-0.152,0.011-0.221,0.017
		c-0.049,0.238-0.042,1.328,0.009,1.514c0.07,0.004,0.147,0.013,0.224,0.014c0.344,0.002,0.689,0,1.033,0.002
		c0.075,0,0.151,0.012,0.25,0.02c0,0.113,0,0.205,0,0.297c0,1.256-0.002,2.511,0.003,3.767c0.001,0.228,0.017,0.46,0.055,0.685
		c0.169,0.998,0.814,1.667,1.802,1.872c0.695,0.144,1.385,0.064,2.069-0.085c0.16-0.035,0.169-0.052,0.164-0.224
		c-0.013-0.437-0.031-0.875-0.049-1.312c-0.002-0.039-0.022-0.078-0.036-0.126c-0.053,0.017-0.094,0.027-0.133,0.042
		c-0.264,0.103-0.54,0.144-0.822,0.139c-0.45-0.008-0.757-0.227-0.867-0.66c-0.061-0.241-0.09-0.495-0.092-0.744
		c-0.009-1.141-0.005-2.281-0.003-3.422c0-0.076,0.013-0.152,0.021-0.245c0.619-0.01,1.219,0.004,1.847-0.009
		C33.233,31.071,33.232,30.581,33.227,30.056z M27.238,31.991c0.009-0.03,0.02-0.05,0.021-0.07c0.002-0.617,0.004-1.233,0.002-1.85
		c-0.001-0.137-0.03-0.168-0.184-0.185c-0.486-0.053-0.96-0.028-1.396,0.23c-0.579,0.343-0.971,0.838-1.197,1.469
		c-0.019,0.054-0.041,0.107-0.062,0.161c-0.054-0.559,0.021-1.111-0.054-1.653c-0.22-0.062-1.663-0.055-1.837,0.011
		c-0.003,0.064-0.009,0.135-0.009,0.206c0,2.517-0.001,5.033,0,7.55c0,0.076,0.012,0.152,0.018,0.221
		c0.265,0.049,1.895,0.038,2.074-0.014c0.004-0.085,0.013-0.176,0.013-0.267c0.003-1.118-0.004-2.237,0.012-3.355
		c0.007-0.538,0.075-1.073,0.279-1.58c0.294-0.73,0.867-1.073,1.65-0.98C26.787,31.909,27.004,31.952,27.238,31.991z"/>
	<path fill="#FFFFFF" d="M17.257,33.867c0.004-0.031,0.014-0.054,0.008-0.071c-0.482-1.381-0.964-2.761-1.448-4.141
		c-0.023-0.067-0.054-0.132-0.082-0.197c-0.002-0.005-0.012-0.007-0.018-0.008c-0.006-0.001-0.013,0.001-0.039,0.003
		c-0.509,1.458-1.021,2.923-1.542,4.415C15.2,33.867,16.227,33.867,17.257,33.867z"/>
	<path fill="#FFFFFF" d="M15.015,18.192c0.513-1.469,1.022-2.924,1.531-4.38c0.018,0,0.036,0.001,0.054,0.001
		c0.511,1.455,1.022,2.91,1.527,4.349c-0.022,0.031-0.025,0.038-0.03,0.043c-0.005,0.005-0.011,0.011-0.017,0.012
		c-0.056,0.007-0.113,0.018-0.169,0.018c-0.932-0.001-1.864-0.002-2.796-0.005C15.095,18.229,15.075,18.215,15.015,18.192z"/>
	<path fill="#FFFFFF" d="M17.257,33.867c-1.03,0-2.057,0-3.122,0c0.521-1.491,1.033-2.957,1.542-4.415
		c0.026-0.002,0.033-0.004,0.039-0.003c0.006,0.001,0.016,0.004,0.018,0.008c0.028,0.065,0.059,0.13,0.082,0.197
		c0.483,1.38,0.966,2.76,1.448,4.141C17.271,33.813,17.261,33.837,17.257,33.867z"/>
</g>
</svg>
