<?xml version="1.0" encoding="utf-8"?>
<!-- Generator: Adobe Illustrator 17.0.0, SVG Export Plug-In . SVG Version: 6.00 Build 0)  -->
<!DOCTYPE svg PUBLIC "-//W3C//DTD SVG 1.1//EN" "http://www.w3.org/Graphics/SVG/1.1/DTD/svg11.dtd">
<svg version="1.1" id="圖層_1" xmlns="http://www.w3.org/2000/svg" xmlns:xlink="http://www.w3.org/1999/xlink" x="0px" y="0px"
	 width="296px" height="296px" viewBox="0 0 296 296" enable-background="new 0 0 296 296" xml:space="preserve">
<g>
	<g>
		<path d="M166.454,131.03l36.906-36.906v-0.002V57.214L152.357,6.209H92.638v14.097v36.908v36.908v36.908v36.908v36.908v36.908
			v14.097h59.719l51.003-51.005v-36.908l0,0L166.454,131.03z M166.452,57.214v36.908v36.908v36.908v36.908v36.908h-36.906v-36.908
			v-36.908V131.03V94.122V57.214V20.306h36.906V57.214z"/>
		<polygon points="203.362,218.943 166.454,255.851 203.362,255.851 		"/>
	</g>
	<g>
		<path d="M92.638,270.392h3.481c1.399,0,2.478,0.167,3.229,0.5c0.754,0.331,1.346,0.842,1.783,1.531
			c0.437,0.687,0.655,1.453,0.655,2.292c0,0.784-0.192,1.499-0.574,2.144c-0.382,0.643-0.944,1.166-1.684,1.566
			c0.916,0.312,1.624,0.678,2.119,1.099c0.495,0.419,0.879,0.928,1.154,1.524c0.275,0.597,0.414,1.242,0.414,1.939
			c0,1.418-0.518,2.616-1.557,3.597c-1.036,0.981-2.427,1.471-4.171,1.471h-4.851V270.392z M94.366,272.122v5.656h1.011
			c1.228,0,2.13-0.116,2.709-0.342c0.576-0.229,1.034-0.59,1.369-1.08c0.338-0.493,0.507-1.041,0.507-1.64
			c0-0.807-0.282-1.443-0.849-1.904c-0.564-0.461-1.464-0.689-2.702-0.689H94.366z M94.366,279.554v6.771h2.191
			c1.291,0,2.237-0.125,2.838-0.377c0.601-0.252,1.083-0.648,1.448-1.182c0.366-0.537,0.548-1.117,0.548-1.742
			c0-0.784-0.257-1.469-0.77-2.054c-0.514-0.583-1.219-0.983-2.114-1.201c-0.604-0.144-1.649-0.215-3.141-0.215H94.366z"/>
		<path d="M109.088,285.414c0.407,0,0.756,0.143,1.043,0.433c0.289,0.287,0.433,0.641,0.433,1.055c0,0.41-0.144,0.759-0.433,1.052
			c-0.287,0.292-0.636,0.437-1.043,0.437c-0.409,0-0.756-0.146-1.046-0.437c-0.287-0.294-0.433-0.643-0.433-1.052
			c0-0.414,0.146-0.768,0.433-1.055C108.331,285.557,108.678,285.414,109.088,285.414z"/>
		<path d="M115.66,288.056v-17.664h3.662c2.642,0,4.559,0.213,5.753,0.636c1.712,0.601,3.051,1.642,4.016,3.123
			c0.965,1.48,1.446,3.245,1.446,5.295c0,1.77-0.382,3.326-1.145,4.671c-0.766,1.346-1.758,2.339-2.979,2.977
			c-1.219,0.641-2.931,0.962-5.133,0.962H115.66z M117.353,286.385h2.04c2.443,0,4.136-0.15,5.08-0.456
			c1.328-0.433,2.374-1.21,3.135-2.332c0.761-1.124,1.14-2.498,1.14-4.122c0-1.705-0.412-3.16-1.238-4.367
			c-0.823-1.208-1.973-2.036-3.444-2.482c-1.106-0.338-2.926-0.504-5.464-0.504h-1.249V286.385z"/>
		<path d="M141.175,270.392l8.237,17.664h-1.906l-2.778-5.811h-7.608l-2.753,5.811h-1.969l8.344-17.664H141.175z M140.953,274.146
			l-3.028,6.392h6.04L140.953,274.146z"/>
		<path d="M153.134,288.056v-17.664h0.384l11.754,13.539v-13.539h1.742v17.664h-0.396l-11.661-13.375v13.375H153.134z"/>
		<path d="M188.916,273.67l-1.393,1.069c-0.768-0.999-1.691-1.758-2.769-2.274c-1.076-0.518-2.26-0.775-3.549-0.775
			c-1.409,0-2.713,0.338-3.914,1.015c-1.201,0.676-2.13,1.585-2.79,2.725c-0.662,1.141-0.992,2.424-0.992,3.847
			c0,2.153,0.738,3.951,2.216,5.392c1.476,1.441,3.34,2.161,5.589,2.161c2.473,0,4.543-0.967,6.209-2.905l1.393,1.057
			c-0.881,1.119-1.98,1.987-3.296,2.6c-1.316,0.611-2.788,0.918-4.414,0.918c-3.088,0-5.526-1.029-7.312-3.086
			c-1.497-1.737-2.244-3.835-2.244-6.292c0-2.586,0.907-4.76,2.718-6.526c1.814-1.765,4.085-2.649,6.815-2.649
			c1.649,0,3.137,0.326,4.467,0.979C186.977,271.578,188.067,272.494,188.916,273.67z"/>
		<path d="M193.239,270.392h10.123v1.73h-8.358v5.536h8.284v1.728h-8.284v6.94h8.284v1.73h-10.049V270.392z"/>
	</g>
</g>
</svg>
